{
	"asset":{
		"generator":"Khronos glTF Blender I/O v4.0.44",
		"version":"2.0"
	},
	"scene":0,
	"scenes":[
		{
			"name":"Scene",
			"nodes":[
				0,
				1
			]
		}
	],
	"nodes":[
		{
			"mesh":0,
			"name":"table"
		},
		{
			"mesh":1,
			"name":"plate"
		}
	],
	"materials":[
		{
			"doubleSided":true,
			"name":"tableColor",
			"pbrMetallicRoughness":{
				"baseColorFactor":[
					0.800000011920929,
					0.800000011920929,
					0.800000011920929,
					1
				],
				"metallicFactor":0,
				"roughnessFactor":0.5
			}
		},
		{
			"doubleSided":true,
			"name":"plateColor",
			"pbrMetallicRoughness":{
				"baseColorFactor":[
					0,
					0,
					0,
					1
				],
				"metallicFactor":0,
				"roughnessFactor":0.5
			}
		}
	],
	"meshes":[
		{
			"name":"Cylinder",
			"primitives":[
				{
					"attributes":{
						"POSITION":0,
						"NORMAL":1,
						"TEXCOORD_0":2
					},
					"indices":3,
					"material":0
				}
			]
		},
		{
			"name":"Circle.001",
			"primitives":[
				{
					"attributes":{
						"POSITION":4,
						"NORMAL":5,
						"TEXCOORD_0":6
					},
					"indices":7,
					"material":1
				}
			]
		}
	],
	"accessors":[
		{
			"bufferView":0,
			"componentType":5126,
			"count":960,
			"max":[
				1.9952439069747925,
				2.1355836391448975,
				1.9952439069747925
			],
			"min":[
				-1.9952439069747925,
				0,
				-1.9952439069747925
			],
			"type":"VEC3"
		},
		{
			"bufferView":1,
			"componentType":5126,
			"count":960,
			"type":"VEC3"
		},
		{
			"bufferView":2,
			"componentType":5126,
			"count":960,
			"type":"VEC2"
		},
		{
			"bufferView":3,
			"componentType":5123,
			"count":1512,
			"type":"SCALAR"
		},
		{
			"bufferView":4,
			"componentType":5126,
			"count":1896,
			"max":[
				1.5404071807861328,
				2.2378530502319336,
				1.70076584815979
			],
			"min":[
				0.39714860916137695,
				2.134357213973999,
				0.6517968773841858
			],
			"type":"VEC3"
		},
		{
			"bufferView":5,
			"componentType":5126,
			"count":1896,
			"type":"VEC3"
		},
		{
			"bufferView":6,
			"componentType":5126,
			"count":1896,
			"type":"VEC2"
		},
		{
			"bufferView":7,
			"componentType":5123,
			"count":3276,
			"type":"SCALAR"
		}
	],
	"bufferViews":[
		{
			"buffer":0,
			"byteLength":11520,
			"byteOffset":0,
			"target":34962
		},
		{
			"buffer":0,
			"byteLength":11520,
			"byteOffset":11520,
			"target":34962
		},
		{
			"buffer":0,
			"byteLength":7680,
			"byteOffset":23040,
			"target":34962
		},
		{
			"buffer":0,
			"byteLength":3024,
			"byteOffset":30720,
			"target":34963
		},
		{
			"buffer":0,
			"byteLength":22752,
			"byteOffset":33744,
			"target":34962
		},
		{
			"buffer":0,
			"byteLength":22752,
			"byteOffset":56496,
			"target":34962
		},
		{
			"buffer":0,
			"byteLength":15168,
			"byteOffset":79248,
			"target":34962
		},
		{
			"buffer":0,
			"byteLength":6552,
			"byteOffset":94416,
			"target":34963
		}
	],
	"buffers":[
		{
			"byteLength":100968,
			"uri":"table.bin"
		}
	]
}
